name rise37.2698peak67.6939fall79.5734.mot
datacolumns 19
datarows 36
range 13.18828900000000 13.24662200000000
endheader
time	ground_force1_vx	ground_force1_vy	ground_force1_vz	ground_force1_px	ground_force1_py	ground_force1_pz	ground_force2_vx	ground_force2_vy	ground_force2_vz	ground_force2_px	ground_force2_py	ground_force2_pz	ground_torque1_x	ground_torque1_y	ground_torque1_z	ground_torque2_x	ground_torque2_y	ground_torque2_z	
13.18828900000000	-2.58106100000000	713.27253199999996	45.95930100000000	0.18418300000000	0.00000000000000	0.11772300000000	0.00000000000000	0.00000000000000	0.00000000000000	0.00000000000000	0.00000000000000	0.00000000000000	0.00000000000000	16.55870600000000	0.00000000000000	0.00000000000000	0.00000000000000	0.00000000000000	
13.18994800000000	-3.12310100000000	714.44033100000001	46.04164200000000	0.18311600000000	0.00000000000000	0.11773600000000	0.00000000000000	0.00000000000000	0.00000000000000	0.00000000000000	0.00000000000000	0.00000000000000	0.00000000000000	16.65830500000000	0.00000000000000	0.00000000000000	0.00000000000000	0.00000000000000	
13.19161700000000	-3.67431200000000	715.63934700000004	46.12972100000000	0.18203900000000	0.00000000000000	0.11775000000000	0.00000000000000	0.00000000000000	0.00000000000000	0.00000000000000	0.00000000000000	0.00000000000000	0.00000000000000	16.76188900000000	0.00000000000000	0.00000000000000	0.00000000000000	0.00000000000000	
13.19328600000000	-4.23450700000000	716.86826900000005	46.22335400000000	0.18095300000000	0.00000000000000	0.11776400000000	0.00000000000000	0.00000000000000	0.00000000000000	0.00000000000000	0.00000000000000	0.00000000000000	0.00000000000000	16.86936800000000	0.00000000000000	0.00000000000000	0.00000000000000	0.00000000000000	
13.19495200000000	-4.80346500000000	718.12581200000000	46.32235600000000	0.17986000000000	0.00000000000000	0.11777900000000	0.00000000000000	0.00000000000000	0.00000000000000	0.00000000000000	0.00000000000000	0.00000000000000	0.00000000000000	16.98064600000000	0.00000000000000	0.00000000000000	0.00000000000000	0.00000000000000	
13.19662300000000	-5.38092300000000	719.41071699999998	46.42653300000000	0.17876100000000	0.00000000000000	0.11779400000000	0.00000000000000	0.00000000000000	0.00000000000000	0.00000000000000	0.00000000000000	0.00000000000000	0.00000000000000	17.09562200000000	0.00000000000000	0.00000000000000	0.00000000000000	0.00000000000000	
13.19829100000000	-5.96658300000000	720.72175600000003	46.53568900000000	0.17765700000000	0.00000000000000	0.11780900000000	0.00000000000000	0.00000000000000	0.00000000000000	0.00000000000000	0.00000000000000	0.00000000000000	0.00000000000000	17.21418800000000	0.00000000000000	0.00000000000000	0.00000000000000	0.00000000000000	
13.19995500000000	-6.56011100000000	722.05772899999999	46.64962300000000	0.17655100000000	0.00000000000000	0.11782500000000	0.00000000000000	0.00000000000000	0.00000000000000	0.00000000000000	0.00000000000000	0.00000000000000	0.00000000000000	17.33623000000000	0.00000000000000	0.00000000000000	0.00000000000000	0.00000000000000	
13.20161600000000	-7.16114000000000	723.41746599999999	46.76813000000000	0.17544300000000	0.00000000000000	0.11784000000000	0.00000000000000	0.00000000000000	0.00000000000000	0.00000000000000	0.00000000000000	0.00000000000000	0.00000000000000	17.46162600000000	0.00000000000000	0.00000000000000	0.00000000000000	0.00000000000000	
13.20328100000000	-7.76926900000000	724.79982500000006	46.89099800000000	0.17433500000000	0.00000000000000	0.11785500000000	0.00000000000000	0.00000000000000	0.00000000000000	0.00000000000000	0.00000000000000	0.00000000000000	0.00000000000000	17.59024800000000	0.00000000000000	0.00000000000000	0.00000000000000	0.00000000000000	
13.20495400000000	-8.38406700000000	726.20369600000004	47.01801400000000	0.17322900000000	0.00000000000000	0.11787000000000	0.00000000000000	0.00000000000000	0.00000000000000	0.00000000000000	0.00000000000000	0.00000000000000	0.00000000000000	17.72196300000000	0.00000000000000	0.00000000000000	0.00000000000000	0.00000000000000	
13.20661600000000	-9.00507500000000	727.62799600000005	47.14896200000000	0.17212700000000	0.00000000000000	0.11788500000000	0.00000000000000	0.00000000000000	0.00000000000000	0.00000000000000	0.00000000000000	0.00000000000000	0.00000000000000	17.85662800000000	0.00000000000000	0.00000000000000	0.00000000000000	0.00000000000000	
13.20828300000000	-9.63180300000000	729.07167000000004	47.28362000000000	0.17102900000000	0.00000000000000	0.11789900000000	0.00000000000000	0.00000000000000	0.00000000000000	0.00000000000000	0.00000000000000	0.00000000000000	0.00000000000000	17.99409400000000	0.00000000000000	0.00000000000000	0.00000000000000	0.00000000000000	
13.20995200000000	-10.26373900000000	730.53369199999997	47.42176600000000	0.16993700000000	0.00000000000000	0.11791200000000	0.00000000000000	0.00000000000000	0.00000000000000	0.00000000000000	0.00000000000000	0.00000000000000	0.00000000000000	18.13420700000000	0.00000000000000	0.00000000000000	0.00000000000000	0.00000000000000	
13.21161400000000	-10.90034800000000	732.01306199999999	47.56317500000000	0.16885300000000	0.00000000000000	0.11792500000000	0.00000000000000	0.00000000000000	0.00000000000000	0.00000000000000	0.00000000000000	0.00000000000000	0.00000000000000	18.27680300000000	0.00000000000000	0.00000000000000	0.00000000000000	0.00000000000000	
13.21328800000000	-11.54107000000000	733.50880400000005	47.70762100000000	0.16777800000000	0.00000000000000	0.11793600000000	0.00000000000000	0.00000000000000	0.00000000000000	0.00000000000000	0.00000000000000	0.00000000000000	0.00000000000000	18.42171300000000	0.00000000000000	0.00000000000000	0.00000000000000	0.00000000000000	
13.21494900000000	-12.18532900000000	735.01996799999995	47.85487500000000	0.16671300000000	0.00000000000000	0.11794700000000	0.00000000000000	0.00000000000000	0.00000000000000	0.00000000000000	0.00000000000000	0.00000000000000	0.00000000000000	18.56876100000000	0.00000000000000	0.00000000000000	0.00000000000000	0.00000000000000	
13.21662600000000	-12.83253100000000	736.54562299999998	48.00470900000000	0.16566000000000	0.00000000000000	0.11795600000000	0.00000000000000	0.00000000000000	0.00000000000000	0.00000000000000	0.00000000000000	0.00000000000000	0.00000000000000	18.71776500000000	0.00000000000000	0.00000000000000	0.00000000000000	0.00000000000000	
13.21828400000000	-13.48206800000000	738.08486000000005	48.15689700000000	0.16461900000000	0.00000000000000	0.11796500000000	0.00000000000000	0.00000000000000	0.00000000000000	0.00000000000000	0.00000000000000	0.00000000000000	0.00000000000000	18.86853500000000	0.00000000000000	0.00000000000000	0.00000000000000	0.00000000000000	
13.21995400000000	-14.13331800000000	739.63678900000002	48.31121300000000	0.16359100000000	0.00000000000000	0.11797200000000	0.00000000000000	0.00000000000000	0.00000000000000	0.00000000000000	0.00000000000000	0.00000000000000	0.00000000000000	19.02087700000000	0.00000000000000	0.00000000000000	0.00000000000000	0.00000000000000	
13.22161900000000	-14.78564900000000	741.20053499999995	48.46743100000000	0.16257700000000	0.00000000000000	0.11797700000000	0.00000000000000	0.00000000000000	0.00000000000000	0.00000000000000	0.00000000000000	0.00000000000000	0.00000000000000	19.17459100000000	0.00000000000000	0.00000000000000	0.00000000000000	0.00000000000000	
13.22328200000000	-15.43842100000000	742.77523699999995	48.62533000000000	0.16157900000000	0.00000000000000	0.11798100000000	0.00000000000000	0.00000000000000	0.00000000000000	0.00000000000000	0.00000000000000	0.00000000000000	0.00000000000000	19.32946900000000	0.00000000000000	0.00000000000000	0.00000000000000	0.00000000000000	
13.22495700000000	-16.09099000000000	744.36004800000001	48.78469100000000	0.16059700000000	0.00000000000000	0.11798300000000	0.00000000000000	0.00000000000000	0.00000000000000	0.00000000000000	0.00000000000000	0.00000000000000	0.00000000000000	19.48530200000000	0.00000000000000	0.00000000000000	0.00000000000000	0.00000000000000	
13.22663400000000	-16.74270400000000	745.95412699999997	48.94530000000000	0.15963100000000	0.00000000000000	0.11798400000000	0.00000000000000	0.00000000000000	0.00000000000000	0.00000000000000	0.00000000000000	0.00000000000000	0.00000000000000	19.64187300000000	0.00000000000000	0.00000000000000	0.00000000000000	0.00000000000000	
13.22828300000000	-17.39291300000000	747.55664200000001	49.10694800000000	0.15868200000000	0.00000000000000	0.11798300000000	0.00000000000000	0.00000000000000	0.00000000000000	0.00000000000000	0.00000000000000	0.00000000000000	0.00000000000000	19.79896100000000	0.00000000000000	0.00000000000000	0.00000000000000	0.00000000000000	
13.22995200000000	-18.04096700000000	749.16676700000005	49.26943100000000	0.15775100000000	0.00000000000000	0.11798000000000	0.00000000000000	0.00000000000000	0.00000000000000	0.00000000000000	0.00000000000000	0.00000000000000	0.00000000000000	19.95634400000000	0.00000000000000	0.00000000000000	0.00000000000000	0.00000000000000	
13.23162600000000	-18.68621700000000	750.78367400000002	49.43255100000000	0.15683700000000	0.00000000000000	0.11797500000000	0.00000000000000	0.00000000000000	0.00000000000000	0.00000000000000	0.00000000000000	0.00000000000000	0.00000000000000	20.11379400000000	0.00000000000000	0.00000000000000	0.00000000000000	0.00000000000000	
13.23328400000000	-19.32802000000000	752.40653799999995	49.59611900000000	0.15594100000000	0.00000000000000	0.11796800000000	0.00000000000000	0.00000000000000	0.00000000000000	0.00000000000000	0.00000000000000	0.00000000000000	0.00000000000000	20.27108200000000	0.00000000000000	0.00000000000000	0.00000000000000	0.00000000000000	
13.23495900000000	-19.96574000000000	754.03452900000002	49.75995200000000	0.15506300000000	0.00000000000000	0.11795900000000	0.00000000000000	0.00000000000000	0.00000000000000	0.00000000000000	0.00000000000000	0.00000000000000	0.00000000000000	20.42797500000000	0.00000000000000	0.00000000000000	0.00000000000000	0.00000000000000	
13.23661900000000	-20.59874700000000	755.66681200000005	49.92387600000000	0.15420300000000	0.00000000000000	0.11794900000000	0.00000000000000	0.00000000000000	0.00000000000000	0.00000000000000	0.00000000000000	0.00000000000000	0.00000000000000	20.58423900000000	0.00000000000000	0.00000000000000	0.00000000000000	0.00000000000000	
13.23828200000000	-21.22642400000000	757.30254300000001	50.08772800000000	0.15336100000000	0.00000000000000	0.11793600000000	0.00000000000000	0.00000000000000	0.00000000000000	0.00000000000000	0.00000000000000	0.00000000000000	0.00000000000000	20.73964000000000	0.00000000000000	0.00000000000000	0.00000000000000	0.00000000000000	
13.23995600000000	-21.84816400000000	758.94086900000002	50.25135100000000	0.15253600000000	0.00000000000000	0.11792100000000	0.00000000000000	0.00000000000000	0.00000000000000	0.00000000000000	0.00000000000000	0.00000000000000	0.00000000000000	20.89394400000000	0.00000000000000	0.00000000000000	0.00000000000000	0.00000000000000	
13.24161900000000	-22.46337500000000	760.58092199999999	50.41460000000000	0.15172800000000	0.00000000000000	0.11790400000000	0.00000000000000	0.00000000000000	0.00000000000000	0.00000000000000	0.00000000000000	0.00000000000000	0.00000000000000	21.04691500000000	0.00000000000000	0.00000000000000	0.00000000000000	0.00000000000000	
13.24328200000000	-23.07148000000000	762.22181999999998	50.57734200000000	0.15093700000000	0.00000000000000	0.11788500000000	0.00000000000000	0.00000000000000	0.00000000000000	0.00000000000000	0.00000000000000	0.00000000000000	0.00000000000000	21.19831900000000	0.00000000000000	0.00000000000000	0.00000000000000	0.00000000000000	
13.24495400000000	-23.67191700000000	763.86266300000000	50.73945200000000	0.15016300000000	0.00000000000000	0.11786400000000	0.00000000000000	0.00000000000000	0.00000000000000	0.00000000000000	0.00000000000000	0.00000000000000	0.00000000000000	21.34792500000000	0.00000000000000	0.00000000000000	0.00000000000000	0.00000000000000	
13.24662200000000	-24.26414500000000	765.50253199999997	50.90081900000000	0.14940400000000	0.00000000000000	0.11784100000000	0.00000000000000	0.00000000000000	0.00000000000000	0.00000000000000	0.00000000000000	0.00000000000000	0.00000000000000	21.49550200000000	0.00000000000000	0.00000000000000	0.00000000000000	0.00000000000000	
